<svg xmlns="http://www.w3.org/2000/svg" width="1000" height="440" viewBox="0 0 1000 440">
<rect x="0" y="0" width="1000" height="440" fill="#F4F7FB"/>
<text x="500.0" y="32" fill="#0F172A" font-size="22" text-anchor="middle" font-family="DejaVu Sans">Controlled Scenario Diagnostics (Quantitative)</text>
<rect x="55" y="70" width="410" height="300" fill="#E6EDF7" stroke="#334155" stroke-width="1.5"/>
<text x="260.0" y="92" fill="#0F172A" font-size="14" text-anchor="middle" font-family="DejaVu Sans">Closest pair (N=30): mean vs CVaR40</text>
<line x1="95" y1="335" x2="445" y2="335" stroke="#0F172A" stroke-width="1.5"/>
<line x1="95" y1="105" x2="95" y2="335" stroke="#0F172A" stroke-width="1.5"/>
<line x1="95.00" y1="335" x2="95.00" y2="339" stroke="#0F172A" stroke-width="1"/>
<text x="95.00" y="351" fill="#334155" font-size="10" text-anchor="middle" font-family="DejaVu Sans">0.50</text>
<line x1="91" y1="335.00" x2="95" y2="335.00" stroke="#0F172A" stroke-width="1"/>
<text x="88" y="338.00" fill="#334155" font-size="10" text-anchor="end" font-family="DejaVu Sans">0.36</text>
<line x1="165.00" y1="335" x2="165.00" y2="339" stroke="#0F172A" stroke-width="1"/>
<text x="165.00" y="351" fill="#334155" font-size="10" text-anchor="middle" font-family="DejaVu Sans">0.55</text>
<line x1="91" y1="289.00" x2="95" y2="289.00" stroke="#0F172A" stroke-width="1"/>
<text x="88" y="292.00" fill="#334155" font-size="10" text-anchor="end" font-family="DejaVu Sans">0.43</text>
<line x1="95" y1="289.00" x2="445" y2="289.00" stroke="#B8C7DA" stroke-width="1"/>
<line x1="235.00" y1="335" x2="235.00" y2="339" stroke="#0F172A" stroke-width="1"/>
<text x="235.00" y="351" fill="#334155" font-size="10" text-anchor="middle" font-family="DejaVu Sans">0.60</text>
<line x1="91" y1="243.00" x2="95" y2="243.00" stroke="#0F172A" stroke-width="1"/>
<text x="88" y="246.00" fill="#334155" font-size="10" text-anchor="end" font-family="DejaVu Sans">0.50</text>
<line x1="95" y1="243.00" x2="445" y2="243.00" stroke="#B8C7DA" stroke-width="1"/>
<line x1="305.00" y1="335" x2="305.00" y2="339" stroke="#0F172A" stroke-width="1"/>
<text x="305.00" y="351" fill="#334155" font-size="10" text-anchor="middle" font-family="DejaVu Sans">0.65</text>
<line x1="91" y1="197.00" x2="95" y2="197.00" stroke="#0F172A" stroke-width="1"/>
<text x="88" y="200.00" fill="#334155" font-size="10" text-anchor="end" font-family="DejaVu Sans">0.57</text>
<line x1="95" y1="197.00" x2="445" y2="197.00" stroke="#B8C7DA" stroke-width="1"/>
<line x1="375.00" y1="335" x2="375.00" y2="339" stroke="#0F172A" stroke-width="1"/>
<text x="375.00" y="351" fill="#334155" font-size="10" text-anchor="middle" font-family="DejaVu Sans">0.71</text>
<line x1="91" y1="151.00" x2="95" y2="151.00" stroke="#0F172A" stroke-width="1"/>
<text x="88" y="154.00" fill="#334155" font-size="10" text-anchor="end" font-family="DejaVu Sans">0.64</text>
<line x1="95" y1="151.00" x2="445" y2="151.00" stroke="#B8C7DA" stroke-width="1"/>
<line x1="445.00" y1="335" x2="445.00" y2="339" stroke="#0F172A" stroke-width="1"/>
<text x="445.00" y="351" fill="#334155" font-size="10" text-anchor="middle" font-family="DejaVu Sans">0.76</text>
<line x1="91" y1="105.00" x2="95" y2="105.00" stroke="#0F172A" stroke-width="1"/>
<text x="88" y="108.00" fill="#334155" font-size="10" text-anchor="end" font-family="DejaVu Sans">0.71</text>
<line x1="95" y1="105.00" x2="445" y2="105.00" stroke="#B8C7DA" stroke-width="1"/>
<line x1="176.82" y1="282.68" x2="363.18" y2="157.32" stroke="#334155" stroke-width="1.2" stroke-dasharray="4,3"/>
<circle cx="176.82" cy="282.68" r="5.5" fill="#2CA58D" stroke="#0F172A" stroke-width="0.8"/>
<circle cx="363.18" cy="157.32" r="5.5" fill="#D62728" stroke="#0F172A" stroke-width="0.8"/>
<text x="184.82" y="275.68" fill="#0F172A" font-size="11" font-family="DejaVu Sans">adaptmanip</text>
<text x="371.18" y="150.32" fill="#0F172A" font-size="11" font-family="DejaVu Sans">CORE</text>
<text x="141" y="116" fill="#334155" font-size="10.5" font-family="DejaVu Sans">CORE vs adaptmanip (N=30)</text>
<text x="260.00" y="363" fill="#334155" font-size="11" text-anchor="middle" font-family="DejaVu Sans">Mean success</text>
<text x="65" y="220.0" fill="#334155" font-size="11" text-anchor="middle" transform="rotate(-90 65 220.0)" font-family="DejaVu Sans">CVaR40</text>
<rect x="515" y="70" width="410" height="300" fill="#E6EDF7" stroke="#334155" stroke-width="1.5"/>
<text x="720.0" y="92" fill="#0F172A" font-size="14" text-anchor="middle" font-family="DejaVu Sans">Closest pair (N=30): empirical return CDF</text>
<line x1="555" y1="335" x2="905" y2="335" stroke="#0F172A" stroke-width="1.5"/>
<line x1="555" y1="105" x2="555" y2="335" stroke="#0F172A" stroke-width="1.5"/>
<line x1="555.00" y1="335" x2="555.00" y2="339" stroke="#0F172A" stroke-width="1"/>
<text x="555.00" y="350" fill="#334155" font-size="10" text-anchor="middle" font-family="DejaVu Sans">0.25</text>
<line x1="625.00" y1="335" x2="625.00" y2="339" stroke="#0F172A" stroke-width="1"/>
<text x="625.00" y="350" fill="#334155" font-size="10" text-anchor="middle" font-family="DejaVu Sans">0.37</text>
<line x1="695.00" y1="335" x2="695.00" y2="339" stroke="#0F172A" stroke-width="1"/>
<text x="695.00" y="350" fill="#334155" font-size="10" text-anchor="middle" font-family="DejaVu Sans">0.49</text>
<line x1="765.00" y1="335" x2="765.00" y2="339" stroke="#0F172A" stroke-width="1"/>
<text x="765.00" y="350" fill="#334155" font-size="10" text-anchor="middle" font-family="DejaVu Sans">0.61</text>
<line x1="835.00" y1="335" x2="835.00" y2="339" stroke="#0F172A" stroke-width="1"/>
<text x="835.00" y="350" fill="#334155" font-size="10" text-anchor="middle" font-family="DejaVu Sans">0.73</text>
<line x1="905.00" y1="335" x2="905.00" y2="339" stroke="#0F172A" stroke-width="1"/>
<text x="905.00" y="350" fill="#334155" font-size="10" text-anchor="middle" font-family="DejaVu Sans">0.85</text>
<line x1="551" y1="335.00" x2="555" y2="335.00" stroke="#0F172A" stroke-width="1"/>
<text x="548" y="338.00" fill="#334155" font-size="10" text-anchor="end" font-family="DejaVu Sans">0.0</text>
<line x1="551" y1="289.00" x2="555" y2="289.00" stroke="#0F172A" stroke-width="1"/>
<text x="548" y="292.00" fill="#334155" font-size="10" text-anchor="end" font-family="DejaVu Sans">0.2</text>
<line x1="555" y1="289.00" x2="905" y2="289.00" stroke="#B8C7DA" stroke-width="1"/>
<line x1="551" y1="243.00" x2="555" y2="243.00" stroke="#0F172A" stroke-width="1"/>
<text x="548" y="246.00" fill="#334155" font-size="10" text-anchor="end" font-family="DejaVu Sans">0.4</text>
<line x1="555" y1="243.00" x2="905" y2="243.00" stroke="#B8C7DA" stroke-width="1"/>
<line x1="551" y1="197.00" x2="555" y2="197.00" stroke="#0F172A" stroke-width="1"/>
<text x="548" y="200.00" fill="#334155" font-size="10" text-anchor="end" font-family="DejaVu Sans">0.6</text>
<line x1="555" y1="197.00" x2="905" y2="197.00" stroke="#B8C7DA" stroke-width="1"/>
<line x1="551" y1="151.00" x2="555" y2="151.00" stroke="#0F172A" stroke-width="1"/>
<text x="548" y="154.00" fill="#334155" font-size="10" text-anchor="end" font-family="DejaVu Sans">0.8</text>
<line x1="555" y1="151.00" x2="905" y2="151.00" stroke="#B8C7DA" stroke-width="1"/>
<line x1="551" y1="105.00" x2="555" y2="105.00" stroke="#0F172A" stroke-width="1"/>
<text x="548" y="108.00" fill="#334155" font-size="10" text-anchor="end" font-family="DejaVu Sans">1.0</text>
<line x1="555" y1="105.00" x2="905" y2="105.00" stroke="#B8C7DA" stroke-width="1"/>
<polyline points="584.17,327.33 642.50,319.67 642.50,312.00 642.50,304.33 642.50,296.67 642.50,289.00 700.83,281.33 700.83,273.67 700.83,266.00 700.83,258.33 700.83,250.67 700.83,243.00 759.17,235.33 759.17,227.67 759.17,220.00 759.17,212.33 759.17,204.67 759.17,197.00 759.17,189.33 759.17,181.67 759.17,174.00 759.17,166.33 759.17,158.67 759.17,151.00 817.50,143.33 817.50,135.67 817.50,128.00 817.50,120.33 817.50,112.67 875.83,105.00" fill="none" stroke="#2CA58D" stroke-width="2.2"/>
<polyline points="700.83,327.33 759.17,319.67 759.17,312.00 759.17,304.33 759.17,296.67 759.17,289.00 759.17,281.33 817.50,273.67 817.50,266.00 817.50,258.33 817.50,250.67 817.50,243.00 817.50,235.33 817.50,227.67 817.50,220.00 817.50,212.33 817.50,204.67 817.50,197.00 817.50,189.33 817.50,181.67 817.50,174.00 817.50,166.33 817.50,158.67 875.83,151.00 875.83,143.33 875.83,135.67 875.83,128.00 875.83,120.33 875.83,112.67 875.83,105.00" fill="none" stroke="#D62728" stroke-width="2.2"/>
<circle cx="584.17" cy="327.33" r="2.4" fill="#2CA58D"/>
<circle cx="642.50" cy="319.67" r="2.4" fill="#2CA58D"/>
<circle cx="642.50" cy="312.00" r="2.4" fill="#2CA58D"/>
<circle cx="642.50" cy="304.33" r="2.4" fill="#2CA58D"/>
<circle cx="642.50" cy="296.67" r="2.4" fill="#2CA58D"/>
<circle cx="642.50" cy="289.00" r="2.4" fill="#2CA58D"/>
<circle cx="700.83" cy="281.33" r="2.4" fill="#2CA58D"/>
<circle cx="700.83" cy="273.67" r="2.4" fill="#2CA58D"/>
<circle cx="700.83" cy="266.00" r="2.4" fill="#2CA58D"/>
<circle cx="700.83" cy="258.33" r="2.4" fill="#2CA58D"/>
<circle cx="700.83" cy="250.67" r="2.4" fill="#2CA58D"/>
<circle cx="700.83" cy="243.00" r="2.4" fill="#2CA58D"/>
<circle cx="759.17" cy="235.33" r="2.4" fill="#2CA58D"/>
<circle cx="759.17" cy="227.67" r="2.4" fill="#2CA58D"/>
<circle cx="759.17" cy="220.00" r="2.4" fill="#2CA58D"/>
<circle cx="759.17" cy="212.33" r="2.4" fill="#2CA58D"/>
<circle cx="759.17" cy="204.67" r="2.4" fill="#2CA58D"/>
<circle cx="759.17" cy="197.00" r="2.4" fill="#2CA58D"/>
<circle cx="759.17" cy="189.33" r="2.4" fill="#2CA58D"/>
<circle cx="759.17" cy="181.67" r="2.4" fill="#2CA58D"/>
<circle cx="759.17" cy="174.00" r="2.4" fill="#2CA58D"/>
<circle cx="759.17" cy="166.33" r="2.4" fill="#2CA58D"/>
<circle cx="759.17" cy="158.67" r="2.4" fill="#2CA58D"/>
<circle cx="759.17" cy="151.00" r="2.4" fill="#2CA58D"/>
<circle cx="817.50" cy="143.33" r="2.4" fill="#2CA58D"/>
<circle cx="817.50" cy="135.67" r="2.4" fill="#2CA58D"/>
<circle cx="817.50" cy="128.00" r="2.4" fill="#2CA58D"/>
<circle cx="817.50" cy="120.33" r="2.4" fill="#2CA58D"/>
<circle cx="817.50" cy="112.67" r="2.4" fill="#2CA58D"/>
<circle cx="875.83" cy="105.00" r="2.4" fill="#2CA58D"/>
<circle cx="700.83" cy="327.33" r="2.4" fill="#D62728"/>
<circle cx="759.17" cy="319.67" r="2.4" fill="#D62728"/>
<circle cx="759.17" cy="312.00" r="2.4" fill="#D62728"/>
<circle cx="759.17" cy="304.33" r="2.4" fill="#D62728"/>
<circle cx="759.17" cy="296.67" r="2.4" fill="#D62728"/>
<circle cx="759.17" cy="289.00" r="2.4" fill="#D62728"/>
<circle cx="759.17" cy="281.33" r="2.4" fill="#D62728"/>
<circle cx="817.50" cy="273.67" r="2.4" fill="#D62728"/>
<circle cx="817.50" cy="266.00" r="2.4" fill="#D62728"/>
<circle cx="817.50" cy="258.33" r="2.4" fill="#D62728"/>
<circle cx="817.50" cy="250.67" r="2.4" fill="#D62728"/>
<circle cx="817.50" cy="243.00" r="2.4" fill="#D62728"/>
<circle cx="817.50" cy="235.33" r="2.4" fill="#D62728"/>
<circle cx="817.50" cy="227.67" r="2.4" fill="#D62728"/>
<circle cx="817.50" cy="220.00" r="2.4" fill="#D62728"/>
<circle cx="817.50" cy="212.33" r="2.4" fill="#D62728"/>
<circle cx="817.50" cy="204.67" r="2.4" fill="#D62728"/>
<circle cx="817.50" cy="197.00" r="2.4" fill="#D62728"/>
<circle cx="817.50" cy="189.33" r="2.4" fill="#D62728"/>
<circle cx="817.50" cy="181.67" r="2.4" fill="#D62728"/>
<circle cx="817.50" cy="174.00" r="2.4" fill="#D62728"/>
<circle cx="817.50" cy="166.33" r="2.4" fill="#D62728"/>
<circle cx="817.50" cy="158.67" r="2.4" fill="#D62728"/>
<circle cx="875.83" cy="151.00" r="2.4" fill="#D62728"/>
<circle cx="875.83" cy="143.33" r="2.4" fill="#D62728"/>
<circle cx="875.83" cy="135.67" r="2.4" fill="#D62728"/>
<circle cx="875.83" cy="128.00" r="2.4" fill="#D62728"/>
<circle cx="875.83" cy="120.33" r="2.4" fill="#D62728"/>
<circle cx="875.83" cy="112.67" r="2.4" fill="#D62728"/>
<circle cx="875.83" cy="105.00" r="2.4" fill="#D62728"/>
<line x1="727" y1="109" x2="755" y2="109" stroke="#2CA58D" stroke-width="2.2"/>
<text x="761" y="113" fill="#334155" font-size="10.5" font-family="DejaVu Sans">adaptmanip</text>
<line x1="727" y1="126" x2="755" y2="126" stroke="#D62728" stroke-width="2.2"/>
<text x="761" y="130" fill="#334155" font-size="10.5" font-family="DejaVu Sans">CORE</text>
<text x="720.00" y="362.00" fill="#334155" font-size="10.5" text-anchor="middle" font-family="DejaVu Sans">Per-seed return</text>
<text x="527" y="220.00" fill="#334155" font-size="10.5" text-anchor="middle" transform="rotate(-90 527 220.00)" font-family="DejaVu Sans">Empirical CDF</text>
</svg>