<svg xmlns="http://www.w3.org/2000/svg" width="980" height="470" viewBox="0 0 980 470">
<rect x="0" y="0" width="980" height="470" fill="#F4F7FB"/>
<text x="490.0" y="30" fill="#0F172A" font-size="21" text-anchor="middle" font-family="DejaVu Sans">Gate Timeline: Scores + Delta Decisions</text>
<rect x="64" y="62" width="898" height="180" fill="#E6EDF7" stroke="#334155" stroke-width="1.2"/>
<line x1="74" y1="240" x2="952" y2="240" stroke="#0F172A" stroke-width="1.3"/>
<line x1="74" y1="72" x2="74" y2="240" stroke="#0F172A" stroke-width="1.3"/>
<polyline points="74.00,203.50 171.56,107.25 269.11,180.40 366.67,180.40 464.22,180.40 561.78,180.40 659.33,180.40 756.89,180.40 854.44,180.40 952.00,180.52" fill="none" stroke="#7A8896" stroke-width="2.1"/>
<polyline points="74.00,122.65 171.56,143.83 269.11,108.79 366.67,108.79 464.22,108.79 561.78,108.79 659.33,108.79 756.89,108.79 854.44,108.79 952.00,108.41" fill="none" stroke="#D62728" stroke-width="2.3"/>
<circle cx="74.00" cy="203.50" r="2.5" fill="#7A8896"/>
<circle cx="74.00" cy="122.65" r="2.8" fill="#D62728"/>
<circle cx="171.56" cy="107.25" r="2.5" fill="#7A8896"/>
<circle cx="171.56" cy="143.83" r="2.8" fill="#D62728"/>
<circle cx="269.11" cy="180.40" r="2.5" fill="#7A8896"/>
<circle cx="269.11" cy="108.79" r="2.8" fill="#D62728"/>
<circle cx="366.67" cy="180.40" r="2.5" fill="#7A8896"/>
<circle cx="366.67" cy="108.79" r="2.8" fill="#D62728"/>
<circle cx="464.22" cy="180.40" r="2.5" fill="#7A8896"/>
<circle cx="464.22" cy="108.79" r="2.8" fill="#D62728"/>
<circle cx="561.78" cy="180.40" r="2.5" fill="#7A8896"/>
<circle cx="561.78" cy="108.79" r="2.8" fill="#D62728"/>
<circle cx="659.33" cy="180.40" r="2.5" fill="#7A8896"/>
<circle cx="659.33" cy="108.79" r="2.8" fill="#D62728"/>
<circle cx="756.89" cy="180.40" r="2.5" fill="#7A8896"/>
<circle cx="756.89" cy="108.79" r="2.8" fill="#D62728"/>
<circle cx="854.44" cy="180.40" r="2.5" fill="#7A8896"/>
<circle cx="854.44" cy="108.79" r="2.8" fill="#D62728"/>
<circle cx="952.00" cy="180.52" r="2.5" fill="#7A8896"/>
<circle cx="952.00" cy="108.41" r="2.8" fill="#D62728"/>
<line x1="74" y1="242.00" x2="952" y2="242.00" stroke="#B8C7DA" stroke-width="1"/>
<text x="68" y="245.00" fill="#334155" font-size="9.5" text-anchor="end" font-family="DejaVu Sans">0.680</text>
<line x1="74" y1="203.50" x2="952" y2="203.50" stroke="#B8C7DA" stroke-width="1"/>
<text x="68" y="206.50" fill="#334155" font-size="9.5" text-anchor="end" font-family="DejaVu Sans">0.700</text>
<line x1="74" y1="165.00" x2="952" y2="165.00" stroke="#B8C7DA" stroke-width="1"/>
<text x="68" y="168.00" fill="#334155" font-size="9.5" text-anchor="end" font-family="DejaVu Sans">0.720</text>
<line x1="74" y1="126.50" x2="952" y2="126.50" stroke="#B8C7DA" stroke-width="1"/>
<text x="68" y="129.50" fill="#334155" font-size="9.5" text-anchor="end" font-family="DejaVu Sans">0.740</text>
<line x1="74" y1="88.00" x2="952" y2="88.00" stroke="#B8C7DA" stroke-width="1"/>
<text x="68" y="91.00" fill="#334155" font-size="9.5" text-anchor="end" font-family="DejaVu Sans">0.760</text>
<text x="84" y="78" fill="#0F172A" font-size="11" font-family="DejaVu Sans">Score trajectory</text>
<rect x="206" y="70" width="10" height="10" fill="#7A8896" rx="1"/><text x="220" y="79" fill="#0F172A" font-size="10" font-family="DejaVu Sans">baseline</text>
<rect x="280" y="70" width="10" height="10" fill="#D62728" rx="1"/><text x="294" y="79" fill="#0F172A" font-size="10" font-family="DejaVu Sans">candidate</text>
<rect x="64" y="274" width="898" height="150" fill="#E6EDF7" stroke="#334155" stroke-width="1.2"/>
<line x1="74" y1="422" x2="952" y2="422" stroke="#0F172A" stroke-width="1.3"/>
<line x1="74" y1="284" x2="74" y2="422" stroke="#0F172A" stroke-width="1.3"/>
<line x1="74" y1="345.57" x2="952" y2="345.57" stroke="#59A14F" stroke-width="1.2" stroke-dasharray="5,4"/>
<line x1="74" y1="371.71" x2="952" y2="371.71" stroke="#F28E2B" stroke-width="1.2" stroke-dasharray="5,4"/>
<line x1="74" y1="380.43" x2="952" y2="380.43" stroke="#334155" stroke-width="1.0" stroke-dasharray="4,3"/>
<line x1="74" y1="424.00" x2="952" y2="424.00" stroke="#B8C7DA" stroke-width="1"/>
<text x="68" y="427.00" fill="#334155" font-size="9.5" text-anchor="end" font-family="DejaVu Sans">-0.025</text>
<line x1="74" y1="399.60" x2="952" y2="399.60" stroke="#B8C7DA" stroke-width="1"/>
<text x="68" y="402.60" fill="#334155" font-size="9.5" text-anchor="end" font-family="DejaVu Sans">-0.011</text>
<line x1="74" y1="375.20" x2="952" y2="375.20" stroke="#B8C7DA" stroke-width="1"/>
<text x="68" y="378.20" fill="#334155" font-size="9.5" text-anchor="end" font-family="DejaVu Sans">+0.003</text>
<line x1="74" y1="350.80" x2="952" y2="350.80" stroke="#B8C7DA" stroke-width="1"/>
<text x="68" y="353.80" fill="#334155" font-size="9.5" text-anchor="end" font-family="DejaVu Sans">+0.017</text>
<line x1="74" y1="326.40" x2="952" y2="326.40" stroke="#B8C7DA" stroke-width="1"/>
<text x="68" y="329.40" fill="#334155" font-size="9.5" text-anchor="end" font-family="DejaVu Sans">+0.031</text>
<line x1="74" y1="302.00" x2="952" y2="302.00" stroke="#B8C7DA" stroke-width="1"/>
<text x="68" y="305.00" fill="#334155" font-size="9.5" text-anchor="end" font-family="DejaVu Sans">+0.045</text>
<rect x="54.25" y="307.23" width="39.51" height="73.20" fill="#59A14F" stroke="#0F172A" stroke-width="0.5" rx="1.5"/>
<text x="74.00" y="303.23" fill="#334155" font-size="9" text-anchor="middle" font-family="DejaVu Sans">+0.042</text>
<text x="74.00" y="438" fill="#334155" font-size="10" text-anchor="middle" font-family="DejaVu Sans">1</text>
<rect x="151.80" y="380.43" width="39.51" height="33.11" fill="#D62728" stroke="#0F172A" stroke-width="0.5" rx="1.5"/>
<text x="171.56" y="376.43" fill="#334155" font-size="9" text-anchor="middle" font-family="DejaVu Sans">-0.019</text>
<text x="171.56" y="438" fill="#334155" font-size="10" text-anchor="middle" font-family="DejaVu Sans">2</text>
<rect x="249.36" y="315.59" width="39.51" height="64.83" fill="#59A14F" stroke="#0F172A" stroke-width="0.5" rx="1.5"/>
<text x="269.11" y="311.59" fill="#334155" font-size="9" text-anchor="middle" font-family="DejaVu Sans">+0.037</text>
<text x="269.11" y="438" fill="#334155" font-size="10" text-anchor="middle" font-family="DejaVu Sans">3</text>
<rect x="346.91" y="315.59" width="39.51" height="64.83" fill="#59A14F" stroke="#0F172A" stroke-width="0.5" rx="1.5"/>
<text x="366.67" y="311.59" fill="#334155" font-size="9" text-anchor="middle" font-family="DejaVu Sans">+0.037</text>
<text x="366.67" y="438" fill="#334155" font-size="10" text-anchor="middle" font-family="DejaVu Sans">4</text>
<rect x="444.47" y="315.59" width="39.51" height="64.83" fill="#59A14F" stroke="#0F172A" stroke-width="0.5" rx="1.5"/>
<text x="464.22" y="311.59" fill="#334155" font-size="9" text-anchor="middle" font-family="DejaVu Sans">+0.037</text>
<text x="464.22" y="438" fill="#334155" font-size="10" text-anchor="middle" font-family="DejaVu Sans">5</text>
<rect x="542.02" y="315.59" width="39.51" height="64.83" fill="#59A14F" stroke="#0F172A" stroke-width="0.5" rx="1.5"/>
<text x="561.78" y="311.59" fill="#334155" font-size="9" text-anchor="middle" font-family="DejaVu Sans">+0.037</text>
<text x="561.78" y="438" fill="#334155" font-size="10" text-anchor="middle" font-family="DejaVu Sans">6</text>
<rect x="639.58" y="315.59" width="39.51" height="64.83" fill="#59A14F" stroke="#0F172A" stroke-width="0.5" rx="1.5"/>
<text x="659.33" y="311.59" fill="#334155" font-size="9" text-anchor="middle" font-family="DejaVu Sans">+0.037</text>
<text x="659.33" y="438" fill="#334155" font-size="10" text-anchor="middle" font-family="DejaVu Sans">7</text>
<rect x="737.13" y="315.59" width="39.51" height="64.83" fill="#59A14F" stroke="#0F172A" stroke-width="0.5" rx="1.5"/>
<text x="756.89" y="311.59" fill="#334155" font-size="9" text-anchor="middle" font-family="DejaVu Sans">+0.037</text>
<text x="756.89" y="438" fill="#334155" font-size="10" text-anchor="middle" font-family="DejaVu Sans">8</text>
<rect x="834.69" y="315.59" width="39.51" height="64.83" fill="#59A14F" stroke="#0F172A" stroke-width="0.5" rx="1.5"/>
<text x="854.44" y="311.59" fill="#334155" font-size="9" text-anchor="middle" font-family="DejaVu Sans">+0.037</text>
<text x="854.44" y="438" fill="#334155" font-size="10" text-anchor="middle" font-family="DejaVu Sans">9</text>
<rect x="932.25" y="315.14" width="39.51" height="65.29" fill="#59A14F" stroke="#0F172A" stroke-width="0.5" rx="1.5"/>
<text x="952.00" y="311.14" fill="#334155" font-size="9" text-anchor="middle" font-family="DejaVu Sans">+0.037</text>
<text x="952.00" y="438" fill="#334155" font-size="10" text-anchor="middle" font-family="DejaVu Sans">10</text>
<text x="84" y="290" fill="#0F172A" font-size="11" font-family="DejaVu Sans">Delta and decision banding</text>
<text x="282" y="290" fill="#59A14F" font-size="10" font-family="DejaVu Sans">tau_green=0.020</text>
<text x="390" y="290" fill="#F28E2B" font-size="10" font-family="DejaVu Sans">tau_yellow=0.005</text>
<rect x="512" y="282" width="10" height="10" fill="#59A14F" rx="1"/>
<text x="526" y="291" fill="#334155" font-size="10" font-family="DejaVu Sans">promote</text>
<rect x="584" y="282" width="10" height="10" fill="#F28E2B" rx="1"/>
<text x="598" y="291" fill="#334155" font-size="10" font-family="DejaVu Sans">monitor</text>
<rect x="656" y="282" width="10" height="10" fill="#D62728" rx="1"/>
<text x="670" y="291" fill="#334155" font-size="10" font-family="DejaVu Sans">rollback</text>
<text x="490.0" y="460" fill="#334155" font-size="11" text-anchor="middle" font-family="DejaVu Sans">Cycle index</text>
</svg>