<svg xmlns="http://www.w3.org/2000/svg" width="940" height="440" viewBox="0 0 940 440">
<rect x="0" y="0" width="940" height="440" fill="#F4F7FB"/>
<rect x="34" y="42" width="572" height="356" fill="#E6EDF7" stroke="#334155" stroke-width="1.5"/>
<text x="46" y="64" fill="#0F172A" font-size="13" font-family="DejaVu Sans">Scenario-model mean success</text>
<text x="171.00" y="72.00" fill="#334155" font-size="10" text-anchor="middle" font-family="DejaVu Sans">base</text>
<text x="221.00" y="72.00" fill="#334155" font-size="10" text-anchor="middle" font-family="DejaVu Sans">trpo-u</text>
<text x="271.00" y="72.00" fill="#334155" font-size="10" text-anchor="middle" font-family="DejaVu Sans">ppo-cvar</text>
<text x="321.00" y="72.00" fill="#334155" font-size="10" text-anchor="middle" font-family="DejaVu Sans">lat</text>
<text x="371.00" y="72.00" fill="#334155" font-size="10" text-anchor="middle" font-family="DejaVu Sans">adapt</text>
<text x="421.00" y="72.00" fill="#334155" font-size="10" text-anchor="middle" font-family="DejaVu Sans">cp</text>
<text x="471.00" y="72.00" fill="#334155" font-size="10" text-anchor="middle" font-family="DejaVu Sans">hist</text>
<text x="521.00" y="72.00" fill="#334155" font-size="10" text-anchor="middle" font-family="DejaVu Sans">flow</text>
<text x="571.00" y="72.00" fill="#334155" font-size="10" text-anchor="middle" font-family="DejaVu Sans">CORE</text>
<text x="138.00" y="107.83" fill="#334155" font-size="10" text-anchor="end" font-family="DejaVu Sans">nominal</text>
<rect x="147.00" y="81.00" width="48.00" height="47.67" fill="#8B98A6" rx="2"/>
<text x="171.00" y="107.83" fill="#0F172A" font-size="9.5" text-anchor="middle" font-family="DejaVu Sans" font-weight="normal">0.712</text>
<rect x="197.00" y="81.00" width="48.00" height="47.67" fill="#64A75C" rx="2"/>
<text x="221.00" y="107.83" fill="#0F172A" font-size="9.5" text-anchor="middle" font-family="DejaVu Sans" font-weight="normal">0.731</text>
<rect x="247.00" y="81.00" width="48.00" height="47.67" fill="#F29131" rx="2"/>
<text x="271.00" y="107.83" fill="#0F172A" font-size="9.5" text-anchor="middle" font-family="DejaVu Sans" font-weight="normal">0.742</text>
<rect x="297.00" y="81.00" width="48.00" height="47.67" fill="#2170AB" rx="2"/>
<text x="321.00" y="107.83" fill="#0F172A" font-size="9.5" text-anchor="middle" font-family="DejaVu Sans" font-weight="normal">0.742</text>
<rect x="347.00" y="81.00" width="48.00" height="47.67" fill="#30A78F" rx="2"/>
<text x="371.00" y="107.83" fill="#0F172A" font-size="9.5" text-anchor="middle" font-family="DejaVu Sans" font-weight="normal">0.744</text>
<rect x="397.00" y="81.00" width="48.00" height="47.67" fill="#B380A6" rx="2"/>
<text x="421.00" y="107.83" fill="#0F172A" font-size="9.5" text-anchor="middle" font-family="DejaVu Sans" font-weight="normal">0.737</text>
<rect x="447.00" y="81.00" width="48.00" height="47.67" fill="#7067C8" rx="2"/>
<text x="471.00" y="107.83" fill="#0F172A" font-size="9.5" text-anchor="middle" font-family="DejaVu Sans" font-weight="normal">0.742</text>
<rect x="497.00" y="81.00" width="48.00" height="47.67" fill="#C35A81" rx="2"/>
<text x="521.00" y="107.83" fill="#0F172A" font-size="9.5" text-anchor="middle" font-family="DejaVu Sans" font-weight="normal">0.741</text>
<rect x="547.00" y="81.00" width="48.00" height="47.67" fill="#D62728" rx="2"/>
<text x="571.00" y="107.83" fill="#0F172A" font-size="9.5" text-anchor="middle" font-family="DejaVu Sans" font-weight="bold">0.749</text>
<text x="138.00" y="157.50" fill="#334155" font-size="10" text-anchor="end" font-family="DejaVu Sans">R4-hard</text>
<rect x="147.00" y="130.67" width="48.00" height="47.67" fill="#CBD4DF" rx="2"/>
<text x="171.00" y="157.50" fill="#0F172A" font-size="9.5" text-anchor="middle" font-family="DejaVu Sans" font-weight="normal">0.573</text>
<rect x="197.00" y="130.67" width="48.00" height="47.67" fill="#B2D1BA" rx="2"/>
<text x="221.00" y="157.50" fill="#0F172A" font-size="9.5" text-anchor="middle" font-family="DejaVu Sans" font-weight="normal">0.601</text>
<rect x="247.00" y="130.67" width="48.00" height="47.67" fill="#EBC29B" rx="2"/>
<text x="271.00" y="157.50" fill="#0F172A" font-size="9.5" text-anchor="middle" font-family="DejaVu Sans" font-weight="normal">0.620</text>
<rect x="297.00" y="130.67" width="48.00" height="47.67" fill="#8CB4D4" rx="2"/>
<text x="321.00" y="157.50" fill="#0F172A" font-size="9.5" text-anchor="middle" font-family="DejaVu Sans" font-weight="normal">0.619</text>
<rect x="347.00" y="130.67" width="48.00" height="47.67" fill="#90CCC6" rx="2"/>
<text x="371.00" y="157.50" fill="#0F172A" font-size="9.5" text-anchor="middle" font-family="DejaVu Sans" font-weight="normal">0.624</text>
<rect x="397.00" y="130.67" width="48.00" height="47.67" fill="#CEBAD1" rx="2"/>
<text x="421.00" y="157.50" fill="#0F172A" font-size="9.5" text-anchor="middle" font-family="DejaVu Sans" font-weight="normal">0.619</text>
<rect x="447.00" y="130.67" width="48.00" height="47.67" fill="#B0B0E1" rx="2"/>
<text x="471.00" y="157.50" fill="#0F172A" font-size="9.5" text-anchor="middle" font-family="DejaVu Sans" font-weight="normal">0.618</text>
<rect x="497.00" y="130.67" width="48.00" height="47.67" fill="#D5A6BE" rx="2"/>
<text x="521.00" y="157.50" fill="#0F172A" font-size="9.5" text-anchor="middle" font-family="DejaVu Sans" font-weight="normal">0.625</text>
<rect x="547.00" y="130.67" width="48.00" height="47.67" fill="#DE8B91" rx="2"/>
<text x="571.00" y="157.50" fill="#0F172A" font-size="9.5" text-anchor="middle" font-family="DejaVu Sans" font-weight="bold">0.630</text>
<text x="138.00" y="207.17" fill="#334155" font-size="10" text-anchor="end" font-family="DejaVu Sans">S1-hard</text>
<rect x="147.00" y="180.33" width="48.00" height="47.67" fill="#C6CFDA" rx="2"/>
<text x="171.00" y="207.17" fill="#0F172A" font-size="9.5" text-anchor="middle" font-family="DejaVu Sans" font-weight="normal">0.585</text>
<rect x="197.00" y="180.33" width="48.00" height="47.67" fill="#AACDB0" rx="2"/>
<text x="221.00" y="207.17" fill="#0F172A" font-size="9.5" text-anchor="middle" font-family="DejaVu Sans" font-weight="normal">0.614</text>
<rect x="247.00" y="180.33" width="48.00" height="47.67" fill="#ECBE92" rx="2"/>
<text x="271.00" y="207.17" fill="#0F172A" font-size="9.5" text-anchor="middle" font-family="DejaVu Sans" font-weight="normal">0.631</text>
<rect x="297.00" y="180.33" width="48.00" height="47.67" fill="#7FABCF" rx="2"/>
<text x="321.00" y="207.17" fill="#0F172A" font-size="9.5" text-anchor="middle" font-family="DejaVu Sans" font-weight="normal">0.634</text>
<rect x="347.00" y="180.33" width="48.00" height="47.67" fill="#87C8C1" rx="2"/>
<text x="371.00" y="207.17" fill="#0F172A" font-size="9.5" text-anchor="middle" font-family="DejaVu Sans" font-weight="normal">0.634</text>
<rect x="397.00" y="180.33" width="48.00" height="47.67" fill="#CCB5CD" rx="2"/>
<text x="421.00" y="207.17" fill="#0F172A" font-size="9.5" text-anchor="middle" font-family="DejaVu Sans" font-weight="normal">0.630</text>
<rect x="447.00" y="180.33" width="48.00" height="47.67" fill="#ACACE0" rx="2"/>
<text x="471.00" y="207.17" fill="#0F172A" font-size="9.5" text-anchor="middle" font-family="DejaVu Sans" font-weight="normal">0.626</text>
<rect x="497.00" y="180.33" width="48.00" height="47.67" fill="#D49FB9" rx="2"/>
<text x="521.00" y="207.17" fill="#0F172A" font-size="9.5" text-anchor="middle" font-family="DejaVu Sans" font-weight="normal">0.635</text>
<rect x="547.00" y="180.33" width="48.00" height="47.67" fill="#DD8186" rx="2"/>
<text x="571.00" y="207.17" fill="#0F172A" font-size="9.5" text-anchor="middle" font-family="DejaVu Sans" font-weight="bold">0.643</text>
<text x="138.00" y="256.83" fill="#334155" font-size="10" text-anchor="end" font-family="DejaVu Sans">S2-high</text>
<rect x="147.00" y="230.00" width="48.00" height="47.67" fill="#B2BCC8" rx="2"/>
<text x="171.00" y="256.83" fill="#0F172A" font-size="9.5" text-anchor="middle" font-family="DejaVu Sans" font-weight="normal">0.628</text>
<rect x="197.00" y="230.00" width="48.00" height="47.67" fill="#92C094" rx="2"/>
<text x="221.00" y="256.83" fill="#0F172A" font-size="9.5" text-anchor="middle" font-family="DejaVu Sans" font-weight="normal">0.654</text>
<rect x="247.00" y="230.00" width="48.00" height="47.67" fill="#EEAE6F" rx="2"/>
<text x="271.00" y="256.83" fill="#0F172A" font-size="9.5" text-anchor="middle" font-family="DejaVu Sans" font-weight="normal">0.671</text>
<rect x="297.00" y="230.00" width="48.00" height="47.67" fill="#5792BF" rx="2"/>
<text x="321.00" y="256.83" fill="#0F172A" font-size="9.5" text-anchor="middle" font-family="DejaVu Sans" font-weight="normal">0.680</text>
<rect x="347.00" y="230.00" width="48.00" height="47.67" fill="#69BDB0" rx="2"/>
<text x="371.00" y="256.83" fill="#0F172A" font-size="9.5" text-anchor="middle" font-family="DejaVu Sans" font-weight="normal">0.673</text>
<rect x="397.00" y="230.00" width="48.00" height="47.67" fill="#C3A2BF" rx="2"/>
<text x="421.00" y="256.83" fill="#0F172A" font-size="9.5" text-anchor="middle" font-family="DejaVu Sans" font-weight="normal">0.668</text>
<rect x="447.00" y="230.00" width="48.00" height="47.67" fill="#9895D8" rx="2"/>
<text x="471.00" y="256.83" fill="#0F172A" font-size="9.5" text-anchor="middle" font-family="DejaVu Sans" font-weight="normal">0.664</text>
<rect x="497.00" y="230.00" width="48.00" height="47.67" fill="#CF8AA7" rx="2"/>
<text x="521.00" y="256.83" fill="#0F172A" font-size="9.5" text-anchor="middle" font-family="DejaVu Sans" font-weight="normal">0.668</text>
<rect x="547.00" y="230.00" width="48.00" height="47.67" fill="#DB6164" rx="2"/>
<text x="571.00" y="256.83" fill="#0F172A" font-size="9.5" text-anchor="middle" font-family="DejaVu Sans" font-weight="bold">0.681</text>
<text x="138.00" y="306.50" fill="#334155" font-size="10" text-anchor="end" font-family="DejaVu Sans">S3-severe</text>
<rect x="147.00" y="279.67" width="48.00" height="47.67" fill="#A9B4C1" rx="2"/>
<text x="171.00" y="306.50" fill="#0F172A" font-size="9.5" text-anchor="middle" font-family="DejaVu Sans" font-weight="normal">0.647</text>
<rect x="197.00" y="279.67" width="48.00" height="47.67" fill="#8ABB89" rx="2"/>
<text x="221.00" y="306.50" fill="#0F172A" font-size="9.5" text-anchor="middle" font-family="DejaVu Sans" font-weight="normal">0.668</text>
<rect x="247.00" y="279.67" width="48.00" height="47.67" fill="#EFA864" rx="2"/>
<text x="271.00" y="306.50" fill="#0F172A" font-size="9.5" text-anchor="middle" font-family="DejaVu Sans" font-weight="normal">0.684</text>
<rect x="297.00" y="279.67" width="48.00" height="47.67" fill="#528FBD" rx="2"/>
<text x="321.00" y="306.50" fill="#0F172A" font-size="9.5" text-anchor="middle" font-family="DejaVu Sans" font-weight="normal">0.686</text>
<rect x="347.00" y="279.67" width="48.00" height="47.67" fill="#5AB7A7" rx="2"/>
<text x="371.00" y="306.50" fill="#0F172A" font-size="9.5" text-anchor="middle" font-family="DejaVu Sans" font-weight="normal">0.691</text>
<rect x="397.00" y="279.67" width="48.00" height="47.67" fill="#C09BBA" rx="2"/>
<text x="421.00" y="306.50" fill="#0F172A" font-size="9.5" text-anchor="middle" font-family="DejaVu Sans" font-weight="normal">0.682</text>
<rect x="447.00" y="279.67" width="48.00" height="47.67" fill="#8883D1" rx="2"/>
<text x="471.00" y="306.50" fill="#0F172A" font-size="9.5" text-anchor="middle" font-family="DejaVu Sans" font-weight="normal">0.695</text>
<rect x="497.00" y="279.67" width="48.00" height="47.67" fill="#CC80A0" rx="2"/>
<text x="521.00" y="306.50" fill="#0F172A" font-size="9.5" text-anchor="middle" font-family="DejaVu Sans" font-weight="normal">0.682</text>
<rect x="547.00" y="279.67" width="48.00" height="47.67" fill="#DA5457" rx="2"/>
<text x="571.00" y="306.50" fill="#0F172A" font-size="9.5" text-anchor="middle" font-family="DejaVu Sans" font-weight="bold">0.696</text>
<text x="138.00" y="356.17" fill="#334155" font-size="10" text-anchor="end" font-family="DejaVu Sans">SIM-isaac</text>
<rect x="147.00" y="329.33" width="48.00" height="47.67" fill="#B3BDC9" rx="2"/>
<text x="171.00" y="356.17" fill="#0F172A" font-size="9.5" text-anchor="middle" font-family="DejaVu Sans" font-weight="normal">0.626</text>
<rect x="197.00" y="329.33" width="48.00" height="47.67" fill="#95C196" rx="2"/>
<text x="221.00" y="356.17" fill="#0F172A" font-size="9.5" text-anchor="middle" font-family="DejaVu Sans" font-weight="normal">0.650</text>
<rect x="247.00" y="329.33" width="48.00" height="47.67" fill="#EEB073" rx="2"/>
<text x="271.00" y="356.17" fill="#0F172A" font-size="9.5" text-anchor="middle" font-family="DejaVu Sans" font-weight="normal">0.666</text>
<rect x="297.00" y="329.33" width="48.00" height="47.67" fill="#6299C4" rx="2"/>
<text x="321.00" y="356.17" fill="#0F172A" font-size="9.5" text-anchor="middle" font-family="DejaVu Sans" font-weight="normal">0.668</text>
<rect x="347.00" y="329.33" width="48.00" height="47.67" fill="#6CBEB1" rx="2"/>
<text x="371.00" y="356.17" fill="#0F172A" font-size="9.5" text-anchor="middle" font-family="DejaVu Sans" font-weight="normal">0.669</text>
<rect x="397.00" y="329.33" width="48.00" height="47.67" fill="#C4A4C0" rx="2"/>
<text x="421.00" y="356.17" fill="#0F172A" font-size="9.5" text-anchor="middle" font-family="DejaVu Sans" font-weight="normal">0.664</text>
<rect x="447.00" y="329.33" width="48.00" height="47.67" fill="#9895D8" rx="2"/>
<text x="471.00" y="356.17" fill="#0F172A" font-size="9.5" text-anchor="middle" font-family="DejaVu Sans" font-weight="normal">0.664</text>
<rect x="497.00" y="329.33" width="48.00" height="47.67" fill="#CE89A7" rx="2"/>
<text x="521.00" y="356.17" fill="#0F172A" font-size="9.5" text-anchor="middle" font-family="DejaVu Sans" font-weight="normal">0.669</text>
<rect x="547.00" y="329.33" width="48.00" height="47.67" fill="#DB6569" rx="2"/>
<text x="571.00" y="356.17" fill="#0F172A" font-size="9.5" text-anchor="middle" font-family="DejaVu Sans" font-weight="bold">0.676</text>
<text x="46" y="386" fill="#334155" font-size="10" font-family="DejaVu Sans">darker cell = stronger score</text>
<rect x="624" y="42" width="286" height="356" fill="#E6EDF7" stroke="#334155" stroke-width="1.5"/>
<text x="767.0" y="64" fill="#0F172A" font-size="13" text-anchor="middle" font-family="DejaVu Sans">MetaWorld shifted mean</text>
<line x1="706" y1="368" x2="894" y2="368" stroke="#0F172A" stroke-width="1.3"/>
<line x1="706" y1="72" x2="706" y2="368" stroke="#0F172A" stroke-width="1.3"/>
<line x1="706.00" y1="72" x2="706.00" y2="368" stroke="#B8C7DA" stroke-width="1"/>
<text x="706.00" y="381.00" fill="#334155" font-size="9" text-anchor="middle" font-family="DejaVu Sans">0.0</text>
<line x1="743.60" y1="72" x2="743.60" y2="368" stroke="#B8C7DA" stroke-width="1"/>
<text x="743.60" y="381.00" fill="#334155" font-size="9" text-anchor="middle" font-family="DejaVu Sans">0.2</text>
<line x1="781.20" y1="72" x2="781.20" y2="368" stroke="#B8C7DA" stroke-width="1"/>
<text x="781.20" y="381.00" fill="#334155" font-size="9" text-anchor="middle" font-family="DejaVu Sans">0.4</text>
<line x1="818.80" y1="72" x2="818.80" y2="368" stroke="#B8C7DA" stroke-width="1"/>
<text x="818.80" y="381.00" fill="#334155" font-size="9" text-anchor="middle" font-family="DejaVu Sans">0.6</text>
<line x1="856.40" y1="72" x2="856.40" y2="368" stroke="#B8C7DA" stroke-width="1"/>
<text x="856.40" y="381.00" fill="#334155" font-size="9" text-anchor="middle" font-family="DejaVu Sans">0.8</text>
<line x1="894.00" y1="72" x2="894.00" y2="368" stroke="#B8C7DA" stroke-width="1"/>
<text x="894.00" y="381.00" fill="#334155" font-size="9" text-anchor="middle" font-family="DejaVu Sans">1.0</text>
<rect x="706.00" y="82.04" width="135.36" height="19.70" fill="#D62728" rx="1.5"/>
<text x="700.00" y="94.89" fill="#334155" font-size="9.5" text-anchor="end" font-family="DejaVu Sans">CORE</text>
<text x="845.36" y="94.89" fill="#0F172A" font-size="9.5" text-anchor="start" font-family="DejaVu Sans">0.72</text>
<rect x="706.00" y="113.82" width="131.60" height="19.70" fill="#1B6CA8" rx="1.5"/>
<text x="700.00" y="126.67" fill="#334155" font-size="9.5" text-anchor="end" font-family="DejaVu Sans">lat</text>
<text x="841.60" y="126.67" fill="#0F172A" font-size="9.5" text-anchor="start" font-family="DejaVu Sans">0.70</text>
<rect x="706.00" y="145.59" width="127.84" height="19.70" fill="#C2557D" rx="1.5"/>
<text x="700.00" y="158.44" fill="#334155" font-size="9.5" text-anchor="end" font-family="DejaVu Sans">flow</text>
<text x="837.84" y="158.44" fill="#0F172A" font-size="9.5" text-anchor="start" font-family="DejaVu Sans">0.68</text>
<rect x="706.00" y="177.37" width="116.56" height="19.70" fill="#2CA58D" rx="1.5"/>
<text x="700.00" y="190.22" fill="#334155" font-size="9.5" text-anchor="end" font-family="DejaVu Sans">adapt</text>
<text x="826.56" y="190.22" fill="#0F172A" font-size="9.5" text-anchor="start" font-family="DejaVu Sans">0.62</text>
<rect x="706.00" y="209.15" width="112.80" height="19.70" fill="#B07AA1" rx="1.5"/>
<text x="700.00" y="222.00" fill="#334155" font-size="9.5" text-anchor="end" font-family="DejaVu Sans">cp</text>
<text x="822.80" y="222.00" fill="#0F172A" font-size="9.5" text-anchor="start" font-family="DejaVu Sans">0.60</text>
<rect x="706.00" y="240.93" width="90.24" height="19.70" fill="#F28E2B" rx="1.5"/>
<text x="700.00" y="253.78" fill="#334155" font-size="9.5" text-anchor="end" font-family="DejaVu Sans">ppo-cvar</text>
<text x="800.24" y="253.78" fill="#0F172A" font-size="9.5" text-anchor="start" font-family="DejaVu Sans">0.48</text>
<rect x="706.00" y="272.70" width="86.48" height="19.70" fill="#6C63C6" rx="1.5"/>
<text x="700.00" y="285.56" fill="#334155" font-size="9.5" text-anchor="end" font-family="DejaVu Sans">hist</text>
<text x="796.48" y="285.56" fill="#0F172A" font-size="9.5" text-anchor="start" font-family="DejaVu Sans">0.46</text>
<rect x="706.00" y="304.48" width="56.40" height="19.70" fill="#59A14F" rx="1.5"/>
<text x="700.00" y="317.33" fill="#334155" font-size="9.5" text-anchor="end" font-family="DejaVu Sans">trpo-u</text>
<text x="766.40" y="317.33" fill="#0F172A" font-size="9.5" text-anchor="start" font-family="DejaVu Sans">0.30</text>
<rect x="706.00" y="336.26" width="26.32" height="19.70" fill="#7A8896" rx="1.5"/>
<text x="700.00" y="349.11" fill="#334155" font-size="9.5" text-anchor="end" font-family="DejaVu Sans">base</text>
<text x="736.32" y="349.11" fill="#0F172A" font-size="9.5" text-anchor="start" font-family="DejaVu Sans">0.14</text>
<text x="800.00" y="393.00" fill="#334155" font-size="9.5" text-anchor="middle" font-family="DejaVu Sans">mean success</text>
</svg>