<svg xmlns="http://www.w3.org/2000/svg" width="980" height="460" viewBox="0 0 980 460">
<rect x="0" y="0" width="980" height="460" fill="#F4F7FB"/>
<text x="490.0" y="32" fill="#0F172A" font-size="21" text-anchor="middle" font-family="DejaVu Sans">Uncertainty-Dominance: Scatter + Variant Summary</text>
<rect x="48" y="62" width="570" height="360" fill="#E6EDF7" stroke="#334155" stroke-width="1.4"/>
<rect x="652" y="62" width="280" height="360" fill="#E6EDF7" stroke="#334155" stroke-width="1.4"/>
<line x1="102.00" y1="382" x2="102.00" y2="386" stroke="#0F172A" stroke-width="1"/>
<text x="102.00" y="402" fill="#334155" font-size="10" text-anchor="middle" font-family="DejaVu Sans">0.00</text>
<line x1="98" y1="382.00" x2="102" y2="382.00" stroke="#0F172A" stroke-width="1"/>
<text x="94" y="386.00" fill="#334155" font-size="10" text-anchor="end" font-family="DejaVu Sans">0.00</text>
<line x1="199.20" y1="382" x2="199.20" y2="386" stroke="#0F172A" stroke-width="1"/>
<text x="199.20" y="402" fill="#334155" font-size="10" text-anchor="middle" font-family="DejaVu Sans">0.03</text>
<line x1="98" y1="324.00" x2="102" y2="324.00" stroke="#0F172A" stroke-width="1"/>
<text x="94" y="328.00" fill="#334155" font-size="10" text-anchor="end" font-family="DejaVu Sans">0.03</text>
<line x1="102" y1="324.00" x2="588" y2="324.00" stroke="#B8C7DA" stroke-width="1"/>
<line x1="296.40" y1="382" x2="296.40" y2="386" stroke="#0F172A" stroke-width="1"/>
<text x="296.40" y="402" fill="#334155" font-size="10" text-anchor="middle" font-family="DejaVu Sans">0.06</text>
<line x1="98" y1="266.00" x2="102" y2="266.00" stroke="#0F172A" stroke-width="1"/>
<text x="94" y="270.00" fill="#334155" font-size="10" text-anchor="end" font-family="DejaVu Sans">0.06</text>
<line x1="102" y1="266.00" x2="588" y2="266.00" stroke="#B8C7DA" stroke-width="1"/>
<line x1="393.60" y1="382" x2="393.60" y2="386" stroke="#0F172A" stroke-width="1"/>
<text x="393.60" y="402" fill="#334155" font-size="10" text-anchor="middle" font-family="DejaVu Sans">0.08</text>
<line x1="98" y1="208.00" x2="102" y2="208.00" stroke="#0F172A" stroke-width="1"/>
<text x="94" y="212.00" fill="#334155" font-size="10" text-anchor="end" font-family="DejaVu Sans">0.10</text>
<line x1="102" y1="208.00" x2="588" y2="208.00" stroke="#B8C7DA" stroke-width="1"/>
<line x1="490.80" y1="382" x2="490.80" y2="386" stroke="#0F172A" stroke-width="1"/>
<text x="490.80" y="402" fill="#334155" font-size="10" text-anchor="middle" font-family="DejaVu Sans">0.11</text>
<line x1="98" y1="150.00" x2="102" y2="150.00" stroke="#0F172A" stroke-width="1"/>
<text x="94" y="154.00" fill="#334155" font-size="10" text-anchor="end" font-family="DejaVu Sans">0.13</text>
<line x1="102" y1="150.00" x2="588" y2="150.00" stroke="#B8C7DA" stroke-width="1"/>
<line x1="588.00" y1="382" x2="588.00" y2="386" stroke="#0F172A" stroke-width="1"/>
<text x="588.00" y="402" fill="#334155" font-size="10" text-anchor="middle" font-family="DejaVu Sans">0.14</text>
<line x1="98" y1="92.00" x2="102" y2="92.00" stroke="#0F172A" stroke-width="1"/>
<text x="94" y="96.00" fill="#334155" font-size="10" text-anchor="end" font-family="DejaVu Sans">0.16</text>
<line x1="102" y1="92.00" x2="588" y2="92.00" stroke="#B8C7DA" stroke-width="1"/>
<line x1="102" y1="84" x2="102" y2="382" stroke="#0F172A" stroke-width="1.6"/>
<line x1="102" y1="382" x2="588" y2="382" stroke="#0F172A" stroke-width="1.6"/>
<line x1="102.00" y1="382.00" x2="588.00" y2="125.91" stroke="#334155" stroke-width="1.4" stroke-dasharray="5,4"/>
<line x1="102.00" y1="374.46" x2="588.00" y2="113.48" stroke="#D62728" stroke-width="2"/>
<circle cx="104.24" cy="377.81" r="6.00" fill="#D62728" opacity="0.78"/>
<circle cx="185.51" cy="337.39" r="6.00" fill="#D62728" opacity="0.78"/>
<circle cx="255.54" cy="302.69" r="6.00" fill="#D62728" opacity="0.78"/>
<circle cx="311.06" cy="272.11" r="6.00" fill="#D62728" opacity="0.78"/>
<circle cx="367.35" cy="241.96" r="6.00" fill="#D62728" opacity="0.78"/>
<circle cx="454.81" cy="191.48" r="5.90" fill="#D62728" opacity="0.78"/>
<circle cx="492.48" cy="174.41" r="6.00" fill="#D62728" opacity="0.78"/>
<circle cx="546.91" cy="148.45" r="6.00" fill="#D62728" opacity="0.78"/>
<text x="408" y="90" fill="#D62728" font-size="11" font-family="DejaVu Sans">fitted envelope</text>
<text x="408" y="106" fill="#334155" font-size="11" font-family="DejaVu Sans">reference e = U</text>
<text x="408" y="122" fill="#334155" font-size="10" font-family="DejaVu Sans">e &lt;= 1.019U + 0.0041</text>
<text x="333.0" y="416" fill="#334155" font-size="11" text-anchor="middle" font-family="DejaVu Sans">Uncertainty proxy U</text>
<text x="62" y="242.0" fill="#334155" font-size="11" text-anchor="middle" transform="rotate(-90 62 242.0)" font-family="DejaVu Sans">Error proxy e</text>
<line x1="670" y1="388.00" x2="914" y2="388.00" stroke="#B8C7DA" stroke-width="1"/>
<text x="666" y="391.00" fill="#334155" font-size="9" text-anchor="end" font-family="DejaVu Sans">0.00</text>
<line x1="670" y1="330.80" x2="914" y2="330.80" stroke="#B8C7DA" stroke-width="1"/>
<text x="666" y="333.80" fill="#334155" font-size="9" text-anchor="end" font-family="DejaVu Sans">0.03</text>
<line x1="670" y1="273.60" x2="914" y2="273.60" stroke="#B8C7DA" stroke-width="1"/>
<text x="666" y="276.60" fill="#334155" font-size="9" text-anchor="end" font-family="DejaVu Sans">0.06</text>
<line x1="670" y1="216.40" x2="914" y2="216.40" stroke="#B8C7DA" stroke-width="1"/>
<text x="666" y="219.40" fill="#334155" font-size="9" text-anchor="end" font-family="DejaVu Sans">0.09</text>
<line x1="670" y1="159.20" x2="914" y2="159.20" stroke="#B8C7DA" stroke-width="1"/>
<text x="666" y="162.20" fill="#334155" font-size="9" text-anchor="end" font-family="DejaVu Sans">0.12</text>
<line x1="670" y1="102.00" x2="914" y2="102.00" stroke="#B8C7DA" stroke-width="1"/>
<text x="666" y="105.00" fill="#334155" font-size="9" text-anchor="end" font-family="DejaVu Sans">0.15</text>
<rect x="674.00" y="261.00" width="20" height="127.00" fill="#1B6CA8" stroke="#0F172A" stroke-width="0.5" rx="1.5"/>
<rect x="697.00" y="260.81" width="20" height="127.19" fill="#D62728" stroke="#0F172A" stroke-width="0.5" rx="1.5"/>
<text x="695.50" y="404" fill="#334155" font-size="9" text-anchor="middle" font-family="DejaVu Sans">baseline</text>
<text x="684.00" y="257.00" fill="#334155" font-size="8.5" text-anchor="middle" font-family="DejaVu Sans">0.067</text>
<text x="707.00" y="256.81" fill="#334155" font-size="8.5" text-anchor="middle" font-family="DejaVu Sans">0.067</text>
<rect x="736.00" y="248.99" width="20" height="139.01" fill="#1B6CA8" stroke="#0F172A" stroke-width="0.5" rx="1.5"/>
<rect x="759.00" y="249.77" width="20" height="138.23" fill="#D62728" stroke="#0F172A" stroke-width="0.5" rx="1.5"/>
<text x="757.50" y="404" fill="#334155" font-size="9" text-anchor="middle" font-family="DejaVu Sans">ext1</text>
<text x="746.00" y="244.99" fill="#334155" font-size="8.5" text-anchor="middle" font-family="DejaVu Sans">0.074</text>
<text x="769.00" y="245.77" fill="#334155" font-size="8.5" text-anchor="middle" font-family="DejaVu Sans">0.073</text>
<rect x="798.00" y="270.68" width="20" height="117.32" fill="#1B6CA8" stroke="#0F172A" stroke-width="0.5" rx="1.5"/>
<rect x="821.00" y="269.31" width="20" height="118.69" fill="#D62728" stroke="#0F172A" stroke-width="0.5" rx="1.5"/>
<text x="819.50" y="404" fill="#334155" font-size="9" text-anchor="middle" font-family="DejaVu Sans">ext2</text>
<text x="808.00" y="266.68" fill="#334155" font-size="8.5" text-anchor="middle" font-family="DejaVu Sans">0.062</text>
<text x="831.00" y="265.31" fill="#334155" font-size="8.5" text-anchor="middle" font-family="DejaVu Sans">0.063</text>
<rect x="860.00" y="285.33" width="20" height="102.67" fill="#1B6CA8" stroke="#0F172A" stroke-width="0.5" rx="1.5"/>
<rect x="883.00" y="282.23" width="20" height="105.77" fill="#D62728" stroke="#0F172A" stroke-width="0.5" rx="1.5"/>
<text x="881.50" y="404" fill="#334155" font-size="9" text-anchor="middle" font-family="DejaVu Sans">method</text>
<text x="870.00" y="281.33" fill="#334155" font-size="8.5" text-anchor="middle" font-family="DejaVu Sans">0.054</text>
<text x="893.00" y="278.23" fill="#334155" font-size="8.5" text-anchor="middle" font-family="DejaVu Sans">0.056</text>
<line x1="670" y1="388" x2="914" y2="388" stroke="#0F172A" stroke-width="1.3"/>
<line x1="670" y1="82" x2="670" y2="388" stroke="#0F172A" stroke-width="1.3"/>
<text x="676" y="82" fill="#0F172A" font-size="12" font-family="DejaVu Sans">Per-variant means</text>
<rect x="802" y="78" width="10" height="10" fill="#1B6CA8" rx="1"/><text x="816" y="87" fill="#0F172A" font-size="10" font-family="DejaVu Sans">U mean</text>
<rect x="866" y="78" width="10" height="10" fill="#D62728" rx="1"/><text x="880" y="87" fill="#0F172A" font-size="10" font-family="DejaVu Sans">e mean</text>
<text x="792.00" y="414.00" fill="#334155" font-size="9.5" text-anchor="middle" font-family="DejaVu Sans">bar axis max=0.151</text>
</svg>