<svg xmlns="http://www.w3.org/2000/svg" width="1040" height="580" viewBox="0 0 1040 580">
<rect x="0" y="0" width="1040" height="580" fill="#F4F7FB"/>
<text x="520.0" y="34" fill="#0F172A" font-size="22" text-anchor="middle" font-family="DejaVu Sans">F2: Main Benchmark Comparison</text>
<line x1="82" y1="468" x2="1004" y2="468" stroke="#0F172A" stroke-width="2"/>
<line x1="82" y1="60" x2="82" y2="468" stroke="#0F172A" stroke-width="2"/>
<text x="24" y="264.0" fill="#0F172A" font-size="12" text-anchor="middle" transform="rotate(-90 24 264.0)" font-family="DejaVu Sans">Mean success</text>
<line x1="82" y1="468.00" x2="1004" y2="468.00" stroke="#B8C7DA" stroke-width="1"/>
<text x="74" y="472.00" fill="#334155" font-size="11" text-anchor="end" font-family="DejaVu Sans">0.00</text>
<line x1="82" y1="386.40" x2="1004" y2="386.40" stroke="#B8C7DA" stroke-width="1"/>
<text x="74" y="390.40" fill="#334155" font-size="11" text-anchor="end" font-family="DejaVu Sans">0.16</text>
<line x1="82" y1="304.80" x2="1004" y2="304.80" stroke="#B8C7DA" stroke-width="1"/>
<text x="74" y="308.80" fill="#334155" font-size="11" text-anchor="end" font-family="DejaVu Sans">0.33</text>
<line x1="82" y1="223.20" x2="1004" y2="223.20" stroke="#B8C7DA" stroke-width="1"/>
<text x="74" y="227.20" fill="#334155" font-size="11" text-anchor="end" font-family="DejaVu Sans">0.49</text>
<line x1="82" y1="141.60" x2="1004" y2="141.60" stroke="#B8C7DA" stroke-width="1"/>
<text x="74" y="145.60" fill="#334155" font-size="11" text-anchor="end" font-family="DejaVu Sans">0.66</text>
<line x1="82" y1="60.00" x2="1004" y2="60.00" stroke="#B8C7DA" stroke-width="1"/>
<text x="74" y="64.00" fill="#334155" font-size="11" text-anchor="end" font-family="DejaVu Sans">0.82</text>
<rect x="107.36" y="113.77" width="179.79" height="354.23" fill="#7A8896" rx="2" stroke="#0F172A" stroke-width="0.6"/>
<line x1="197.25" y1="112.54" x2="197.25" y2="114.99" stroke="#0F172A" stroke-width="1.2"/>
<line x1="157.70" y1="112.54" x2="236.80" y2="112.54" stroke="#0F172A" stroke-width="1.2"/>
<line x1="157.70" y1="114.99" x2="236.80" y2="114.99" stroke="#0F172A" stroke-width="1.2"/>
<text x="197.25" y="109.77" fill="#0F172A" font-size="9.5" text-anchor="middle" font-family="DejaVu Sans">0.712</text>
<text x="197.25" y="492.00" fill="#334155" font-size="11" text-anchor="middle" font-family="DejaVu Sans">baseline</text>
<rect x="337.86" y="104.39" width="179.79" height="363.61" fill="#59A14F" rx="2" stroke="#0F172A" stroke-width="0.6"/>
<line x1="427.75" y1="103.94" x2="427.75" y2="104.84" stroke="#0F172A" stroke-width="1.2"/>
<line x1="388.20" y1="103.94" x2="467.30" y2="103.94" stroke="#0F172A" stroke-width="1.2"/>
<line x1="388.20" y1="104.84" x2="467.30" y2="104.84" stroke="#0F172A" stroke-width="1.2"/>
<text x="427.75" y="100.39" fill="#0F172A" font-size="9.5" text-anchor="middle" font-family="DejaVu Sans">0.731</text>
<text x="427.75" y="492.00" fill="#334155" font-size="11" text-anchor="middle" font-family="DejaVu Sans">ext1</text>
<rect x="568.36" y="97.81" width="179.79" height="370.19" fill="#F28E2B" rx="2" stroke="#0F172A" stroke-width="0.6"/>
<line x1="658.25" y1="96.71" x2="658.25" y2="98.92" stroke="#0F172A" stroke-width="1.2"/>
<line x1="618.70" y1="96.71" x2="697.80" y2="96.71" stroke="#0F172A" stroke-width="1.2"/>
<line x1="618.70" y1="98.92" x2="697.80" y2="98.92" stroke="#0F172A" stroke-width="1.2"/>
<text x="658.25" y="93.81" fill="#0F172A" font-size="9.5" text-anchor="middle" font-family="DejaVu Sans">0.744</text>
<text x="658.25" y="492.00" fill="#334155" font-size="11" text-anchor="middle" font-family="DejaVu Sans">ext2</text>
<rect x="798.86" y="95.13" width="179.79" height="372.87" fill="#D62728" rx="2" stroke="#0F172A" stroke-width="0.6"/>
<line x1="888.75" y1="94.37" x2="888.75" y2="95.88" stroke="#0F172A" stroke-width="1.2"/>
<line x1="849.20" y1="94.37" x2="928.30" y2="94.37" stroke="#0F172A" stroke-width="1.2"/>
<line x1="849.20" y1="95.88" x2="928.30" y2="95.88" stroke="#0F172A" stroke-width="1.2"/>
<text x="888.75" y="91.13" fill="#0F172A" font-size="9.5" text-anchor="middle" font-family="DejaVu Sans">0.749</text>
<text x="888.75" y="492.00" fill="#334155" font-size="11" text-anchor="middle" font-family="DejaVu Sans">CORE</text>
<rect x="86" y="44" width="14" height="14" fill="#7A8896" rx="2"/>
<text x="106" y="56" fill="#0F172A" font-size="12" text-anchor="start" font-family="DejaVu Sans">mean ± CI95</text>
</svg>