<svg xmlns="http://www.w3.org/2000/svg" width="1040" height="580" viewBox="0 0 1040 580">
<rect x="0" y="0" width="1040" height="580" fill="#F4F7FB"/>
<text x="520.0" y="34" fill="#0F172A" font-size="22" text-anchor="middle" font-family="DejaVu Sans">F3: Ablation Impact</text>
<line x1="82" y1="468" x2="1004" y2="468" stroke="#0F172A" stroke-width="2"/>
<line x1="82" y1="60" x2="82" y2="468" stroke="#0F172A" stroke-width="2"/>
<text x="24" y="264.0" fill="#0F172A" font-size="12" text-anchor="middle" transform="rotate(-90 24 264.0)" font-family="DejaVu Sans">Mean success</text>
<line x1="82" y1="468.00" x2="1004" y2="468.00" stroke="#B8C7DA" stroke-width="1"/>
<text x="74" y="472.00" fill="#334155" font-size="11" text-anchor="end" font-family="DejaVu Sans">0.00</text>
<line x1="82" y1="386.40" x2="1004" y2="386.40" stroke="#B8C7DA" stroke-width="1"/>
<text x="74" y="390.40" fill="#334155" font-size="11" text-anchor="end" font-family="DejaVu Sans">0.16</text>
<line x1="82" y1="304.80" x2="1004" y2="304.80" stroke="#B8C7DA" stroke-width="1"/>
<text x="74" y="308.80" fill="#334155" font-size="11" text-anchor="end" font-family="DejaVu Sans">0.32</text>
<line x1="82" y1="223.20" x2="1004" y2="223.20" stroke="#B8C7DA" stroke-width="1"/>
<text x="74" y="227.20" fill="#334155" font-size="11" text-anchor="end" font-family="DejaVu Sans">0.48</text>
<line x1="82" y1="141.60" x2="1004" y2="141.60" stroke="#B8C7DA" stroke-width="1"/>
<text x="74" y="145.60" fill="#334155" font-size="11" text-anchor="end" font-family="DejaVu Sans">0.64</text>
<line x1="82" y1="60.00" x2="1004" y2="60.00" stroke="#B8C7DA" stroke-width="1"/>
<text x="74" y="64.00" fill="#334155" font-size="11" text-anchor="end" font-family="DejaVu Sans">0.80</text>
<rect x="102.28" y="84.99" width="143.83" height="383.01" fill="#D62728" rx="2" stroke="#0F172A" stroke-width="0.6"/>
<line x1="174.20" y1="83.51" x2="174.20" y2="86.47" stroke="#0F172A" stroke-width="1.2"/>
<line x1="142.56" y1="83.51" x2="205.84" y2="83.51" stroke="#0F172A" stroke-width="1.2"/>
<line x1="142.56" y1="86.47" x2="205.84" y2="86.47" stroke="#0F172A" stroke-width="1.2"/>
<text x="174.20" y="80.99" fill="#0F172A" font-size="9.5" text-anchor="middle" font-family="DejaVu Sans">0.751</text>
<text x="174.20" y="492.00" fill="#334155" font-size="11" text-anchor="middle" font-family="DejaVu Sans">full</text>
<rect x="286.68" y="91.14" width="143.83" height="376.86" fill="#1B6CA8" rx="2" stroke="#0F172A" stroke-width="0.6"/>
<line x1="358.60" y1="90.57" x2="358.60" y2="91.71" stroke="#0F172A" stroke-width="1.2"/>
<line x1="326.96" y1="90.57" x2="390.24" y2="90.57" stroke="#0F172A" stroke-width="1.2"/>
<line x1="326.96" y1="91.71" x2="390.24" y2="91.71" stroke="#0F172A" stroke-width="1.2"/>
<text x="358.60" y="87.14" fill="#0F172A" font-size="9.5" text-anchor="middle" font-family="DejaVu Sans">0.739</text>
<text x="358.60" y="492.00" fill="#334155" font-size="11" text-anchor="middle" font-family="DejaVu Sans">no-gate</text>
<rect x="471.08" y="100.62" width="143.83" height="367.38" fill="#2CA58D" rx="2" stroke="#0F172A" stroke-width="0.6"/>
<line x1="543.00" y1="99.96" x2="543.00" y2="101.28" stroke="#0F172A" stroke-width="1.2"/>
<line x1="511.36" y1="99.96" x2="574.64" y2="99.96" stroke="#0F172A" stroke-width="1.2"/>
<line x1="511.36" y1="101.28" x2="574.64" y2="101.28" stroke="#0F172A" stroke-width="1.2"/>
<text x="543.00" y="96.62" fill="#0F172A" font-size="9.5" text-anchor="middle" font-family="DejaVu Sans">0.720</text>
<text x="543.00" y="492.00" fill="#334155" font-size="11" text-anchor="middle" font-family="DejaVu Sans">no-history</text>
<rect x="655.48" y="108.19" width="143.83" height="359.81" fill="#6C63C6" rx="2" stroke="#0F172A" stroke-width="0.6"/>
<line x1="727.40" y1="106.68" x2="727.40" y2="109.71" stroke="#0F172A" stroke-width="1.2"/>
<line x1="695.76" y1="106.68" x2="759.04" y2="106.68" stroke="#0F172A" stroke-width="1.2"/>
<line x1="695.76" y1="109.71" x2="759.04" y2="109.71" stroke="#0F172A" stroke-width="1.2"/>
<text x="727.40" y="104.19" fill="#0F172A" font-size="9.5" text-anchor="middle" font-family="DejaVu Sans">0.706</text>
<text x="727.40" y="492.00" fill="#334155" font-size="11" text-anchor="middle" font-family="DejaVu Sans">no-gate+history</text>
<rect x="839.88" y="94.99" width="143.83" height="373.01" fill="#B07AA1" rx="2" stroke="#0F172A" stroke-width="0.6"/>
<line x1="911.80" y1="94.02" x2="911.80" y2="95.95" stroke="#0F172A" stroke-width="1.2"/>
<line x1="880.16" y1="94.02" x2="943.44" y2="94.02" stroke="#0F172A" stroke-width="1.2"/>
<line x1="880.16" y1="95.95" x2="943.44" y2="95.95" stroke="#0F172A" stroke-width="1.2"/>
<text x="911.80" y="90.99" fill="#0F172A" font-size="9.5" text-anchor="middle" font-family="DejaVu Sans">0.731</text>
<text x="911.80" y="492.00" fill="#334155" font-size="11" text-anchor="middle" font-family="DejaVu Sans">no-robust</text>
<rect x="86" y="44" width="14" height="14" fill="#D62728" rx="2"/>
<text x="106" y="56" fill="#0F172A" font-size="12" text-anchor="start" font-family="DejaVu Sans">mean ± CI95</text>
</svg>