<svg xmlns="http://www.w3.org/2000/svg" width="1040" height="580" viewBox="0 0 1040 580">
<rect x="0" y="0" width="1040" height="580" fill="#F4F7FB"/>
<text x="520.0" y="34" fill="#0F172A" font-size="22" text-anchor="middle" font-family="DejaVu Sans">F4: Robustness Comparison (Representative Severities)</text>
<line x1="82" y1="468" x2="1004" y2="468" stroke="#0F172A" stroke-width="2"/>
<line x1="82" y1="60" x2="82" y2="468" stroke="#0F172A" stroke-width="2"/>
<text x="24" y="264.0" fill="#0F172A" font-size="12" text-anchor="middle" transform="rotate(-90 24 264.0)" font-family="DejaVu Sans">Mean success</text>
<line x1="82" y1="468.00" x2="1004" y2="468.00" stroke="#B8C7DA" stroke-width="1"/>
<text x="74" y="472.00" fill="#334155" font-size="11" text-anchor="end" font-family="DejaVu Sans">0.00</text>
<line x1="82" y1="386.40" x2="1004" y2="386.40" stroke="#B8C7DA" stroke-width="1"/>
<text x="74" y="390.40" fill="#334155" font-size="11" text-anchor="end" font-family="DejaVu Sans">0.16</text>
<line x1="82" y1="304.80" x2="1004" y2="304.80" stroke="#B8C7DA" stroke-width="1"/>
<text x="74" y="308.80" fill="#334155" font-size="11" text-anchor="end" font-family="DejaVu Sans">0.32</text>
<line x1="82" y1="223.20" x2="1004" y2="223.20" stroke="#B8C7DA" stroke-width="1"/>
<text x="74" y="227.20" fill="#334155" font-size="11" text-anchor="end" font-family="DejaVu Sans">0.48</text>
<line x1="82" y1="141.60" x2="1004" y2="141.60" stroke="#B8C7DA" stroke-width="1"/>
<text x="74" y="145.60" fill="#334155" font-size="11" text-anchor="end" font-family="DejaVu Sans">0.64</text>
<line x1="82" y1="60.00" x2="1004" y2="60.00" stroke="#B8C7DA" stroke-width="1"/>
<text x="74" y="64.00" fill="#334155" font-size="11" text-anchor="end" font-family="DejaVu Sans">0.80</text>
<rect x="107.36" y="127.17" width="89.89" height="340.83" fill="#7A8896" rx="2" stroke="#0F172A" stroke-width="0.6"/>
<text x="152.30" y="123.17" fill="#0F172A" font-size="9.5" text-anchor="middle" font-family="DejaVu Sans">0.668</text>
<rect x="197.25" y="103.28" width="89.89" height="364.72" fill="#D62728" rx="2" stroke="#0F172A" stroke-width="0.6"/>
<text x="242.20" y="99.28" fill="#0F172A" font-size="9.5" text-anchor="middle" font-family="DejaVu Sans">0.715</text>
<text x="197.25" y="492.00" fill="#334155" font-size="11" text-anchor="middle" font-family="DejaVu Sans">R1-med</text>
<rect x="337.86" y="126.86" width="89.89" height="341.14" fill="#7A8896" rx="2" stroke="#0F172A" stroke-width="0.6"/>
<text x="382.80" y="122.86" fill="#0F172A" font-size="9.5" text-anchor="middle" font-family="DejaVu Sans">0.669</text>
<rect x="427.75" y="103.94" width="89.89" height="364.06" fill="#D62728" rx="2" stroke="#0F172A" stroke-width="0.6"/>
<text x="472.70" y="99.94" fill="#0F172A" font-size="9.5" text-anchor="middle" font-family="DejaVu Sans">0.714</text>
<text x="427.75" y="492.00" fill="#334155" font-size="11" text-anchor="middle" font-family="DejaVu Sans">R2-med</text>
<rect x="568.36" y="138.91" width="89.89" height="329.09" fill="#7A8896" rx="2" stroke="#0F172A" stroke-width="0.6"/>
<text x="613.30" y="134.91" fill="#0F172A" font-size="9.5" text-anchor="middle" font-family="DejaVu Sans">0.645</text>
<rect x="658.25" y="113.53" width="89.89" height="354.47" fill="#D62728" rx="2" stroke="#0F172A" stroke-width="0.6"/>
<text x="703.20" y="109.53" fill="#0F172A" font-size="9.5" text-anchor="middle" font-family="DejaVu Sans">0.695</text>
<text x="658.25" y="492.00" fill="#334155" font-size="11" text-anchor="middle" font-family="DejaVu Sans">R3-severe</text>
<rect x="798.86" y="176.09" width="89.89" height="291.91" fill="#7A8896" rx="2" stroke="#0F172A" stroke-width="0.6"/>
<text x="843.80" y="172.09" fill="#0F172A" font-size="9.5" text-anchor="middle" font-family="DejaVu Sans">0.572</text>
<rect x="888.75" y="146.72" width="89.89" height="321.28" fill="#D62728" rx="2" stroke="#0F172A" stroke-width="0.6"/>
<text x="933.70" y="142.72" fill="#0F172A" font-size="9.5" text-anchor="middle" font-family="DejaVu Sans">0.630</text>
<text x="888.75" y="492.00" fill="#334155" font-size="11" text-anchor="middle" font-family="DejaVu Sans">R4-hard</text>
<rect x="86" y="44" width="14" height="14" fill="#7A8896" rx="2"/>
<text x="106" y="56" fill="#0F172A" font-size="12" text-anchor="start" font-family="DejaVu Sans">baseline</text>
<rect x="276" y="44" width="14" height="14" fill="#D62728" rx="2"/>
<text x="296" y="56" fill="#0F172A" font-size="12" text-anchor="start" font-family="DejaVu Sans">CORE</text>
</svg>